# xmcd
#
# Track frame offsets:
#	150
#	11902
#	23962
#	34830
#	52652
#	64087
#	77462
#	94645
#	106062
#	122972
#
# Disc length: 1933
#
# Revision: 6
# Processed by: cddbd v1.5.1PL0 Copyright (c) Steve Scherf et al.
# Submitted via: ExactAudioCopy v0.95a5
# Normalized: r5:TDELIM( - ),TSWAP
#
DISCID=72078b0a
DTITLE=Various Artist - Shades Of Blues - Vol I
DYEAR=2000
DGENRE=Blues
TTITLE0=B.B. King - Payin' The Cost To Be The Boss
TTITLE1=Lightin' Hopkins - Lonesome Dog
TTITLE2=Billie Holiday - I Got It Bad And That Ain't Good
TTITLE3=John Mayall - Mama Talk To Your Daughter
TTITLE4=John Lee Hooker - Boom Boom
TTITLE5=Elmore James - Dust My Broom
TTITLE6=Charles Brown - Driftin' Blues
TTITLE7=Elmore James - Look On Yonder Wall
TTITLE8=Gatemouth Moore - Goin' Down Slow
TTITLE9=B.B. King - The Thrill Is Gone
EXTD=
EXTT0=
EXTT1=
EXTT2=
EXTT3=
EXTT4=
EXTT5=
EXTT6=
EXTT7=
EXTT8=
EXTT9=
PLAYORDER=
